<?xml version="1.0" encoding="UTF-8"?>
<svg xmlns="http://www.w3.org/2000/svg" version="1.1" viewBox="0 0 1080 312">
  <defs>
    <style>
      .cls-1 {
        isolation: isolate;
      }

      .cls-2 {
        fill: #1d1d1b;
      }
    </style>
  </defs>
  <!-- Generator: Adobe Illustrator 28.7.1, SVG Export Plug-In . SVG Version: 1.2.0 Build 142)  -->
  <g>
    <g id="Capa_1">
      <g class="cls-1">
        <path class="cls-2" d="M140.1,263.7c-8.1,0-14-1.6-17.4-4.9-3.5-3.3-5.2-6.7-5.2-10.1s1-6.1,3-7.9c2-1.8,4.2-2.7,6.6-2.7s4.7.8,6.8,2.3c2.1,1.6,3.1,4.1,3.1,7.5s-.4,3.2-1.3,4.9c1,.3,2.1.6,3.1.7,1,0,2,.1,2.9.1,6.8,0,12.5-1.5,17.2-4.4,4.7-2.9,8.4-6.8,11.3-11.4,2.9-4.7,4.9-10,6.2-15.9,1.3-5.9,2-11.8,2-17.7v-41.6c-9.4-.3-16.6-2.1-21.7-5.2-5.1-3.1-7.7-6.7-7.7-10.7s2.4-7.3,7.3-10.5c4.9-3.2,12.2-5.4,22.1-6.6v-5.2c0-8.8-.2-15.9-.6-21.3-.4-5.4-1.1-9.6-2-12.7-.9-3.1-2-5.4-3.5-6.9-1.5-1.5-3.2-2.6-5.3-3.2v-.5c3.8-.3,7.6-1.2,11.3-2.6,3.7-1.4,7.2-3.2,10.5-5.5,3.3-2.3,6.2-4.9,8.7-7.8,2.5-2.9,4.4-6.2,5.6-9.6-8-.2-15.9.7-23.7,2.7-7.8,2-14.7,4.7-20.7,8.2-6,3.5-10.8,7.6-14.6,12.5-3.7,4.9-5.6,10.1-5.6,15.6s.8,5.5,2.5,7.1c1.6,1.6,3.6,2.5,5.9,2.5s3.7-.5,5.3-1.4c1.6-1,3.2-2.6,4.5-5.1-.3,8.1-3,14.9-8.1,20.1-5,5.3-11.3,7.9-18.7,7.9s-12-2.3-16.1-6.8c-4.2-4.5-6.2-10.5-6.2-17.9s2.6-15.8,7.9-22.5c5.3-6.7,12.1-12.3,20.5-17,8.4-4.7,17.9-8.2,28.3-10.7,10.5-2.4,20.9-3.6,31.3-3.6s18,.8,26,2.3l.3.5c-4.5,2.3-8,5.5-10.5,9.6-2.5,4.2-4.3,8.9-5.5,14.3-1.1,5.4-1.8,11.3-2.1,17.8-.3,6.5-.4,13.3-.4,20.4v19c7.8,1,15,3.1,21.6,6.2,6.4-5.9,11.7-12.6,15.9-20,4.2-7.5,6.2-14.8,6.2-22.1s-.9-8.5-2.7-10.8c-1.8-2.3-4.1-3.5-6.9-3.5s-4.7.7-6.9,2.2c-2.2,1.5-3.4,3.4-3.8,5.9-1-4-1.1-7.9-.1-11.8,1-3.9,2.6-7.4,4.9-10.5,2.3-3.1,5.3-5.6,8.8-7.5,3.6-1.9,7.4-2.9,11.6-2.9s6,.6,8.6,1.8c2.6,1.2,4.5,3,5.7,5.5,6.1-8.8,14-15.3,23.7-19.5,9.7-4.2,20.3-5.6,31.7-4.4l.3,1.3c-5.2.5-10.1,2.6-14.7,6.1-4.6,3.6-9.1,8.1-13.4,13.8-4.3,5.6-8.7,12-13,19-4.3,7-8.9,14.2-13.6,21.6-4.8,7.4-9.9,14.6-15.3,21.7-5.5,7.1-11.4,13.5-17.8,19.2,8.7,5.5,16.2,12.4,22.6,20.7,6.4,8.2,12.1,16.9,17.2,25.9,5,9,9.6,18.1,13.7,27.2,4.1,9.1,8.1,17.2,12,24.4,3.9,7.2,7.9,13,12.1,17.5,4.2,4.5,8.9,6.8,14.3,6.8s5.1-.7,6.5-2.1c1.4-1.4,2.1-2.9,2.1-4.4s-.6-3-1.9-4.3c-1.3-1.3-3.2-1.9-5.9-1.7,4.5-3,9-4.4,13.5-4.4s8.4,1.2,11.7,3.5c3.3,2.3,4.9,5.3,4.9,9s-2.6,8.1-7.8,10.9c-5.2,2.8-12,4.2-20.3,4.2s-19.5-2.3-27.2-6.8c-7.7-4.5-14.6-10.4-20.7-17.7-6.1-7.3-11.5-15.5-16.2-24.6-4.8-9.1-9.4-18.2-13.9-27.3-4.5-9.1-9.1-17.8-13.8-26.1-4.7-8.3-9.9-15.3-15.6-21.1-5.4,3.6-11.4,6.5-17.9,8.6v36.7c0,14.2,1.2,25.2,3.6,33,2.4,7.8,6.4,13.1,12,15.9l-2.9,6c-6.1-2.3-12.3-2.9-18.7-2.1.2-1.9-.3-3.6-1.6-4.9-1.2-1.4-2.9-2.1-4.9-2.1s-3.5.7-4.7,2c-1.2,1.3-1.8,3-1.8,5.1s.3,2.2.8,2.9c-3.5,1-7,2.3-10.5,3.8-3.6,1.5-7.2,2.8-10.9,4-3.7,1.2-7.6,2.3-11.6,3.1-4,.9-8.1,1.3-12.2,1.3ZM178.3,138.9c-6.2,1.6-9.4,3.7-9.4,6.5s3.1,5.1,9.4,6.5v-13ZM203.6,149.9c3.5-1.2,7-2.9,10.7-5.2-3.1-2.1-6.7-3.8-10.7-5.2v10.4Z"/>
        <path class="cls-2" d="M294.6,225.8c4.2-1.4,7.1-4.3,8.7-8.7,1.6-4.4,2.5-11.5,2.5-21.2v-86.8c0-9.7-.8-16.8-2.5-21.2-1.6-4.4-4.6-7.3-8.7-8.7v-.8h63.2c6.2,0,12,.9,17.2,2.6,5.2,1.7,9.6,4.2,13.3,7.3,3.6,3.1,6.5,6.8,8.4,10.9,2,4.2,3,8.8,3,13.8s-.9,9.3-2.7,13.4c-1.8,4.1-4.3,7.6-7.4,10.5-3.1,2.9-6.8,5.2-11,6.8-4.2,1.6-8.8,2.3-13.7,2.1,5.7,7.3,11.2,16,16.4,26.1,5.2,10.1,9.4,20.3,12.7,30.6,4.2,13,9,20.8,14.6,23.4v.8h-44.2l-.3-.8c6.1-2.8,7.8-9.6,5.2-20.5-1.6-6.6-3.6-13.4-6.2-20.4-2.6-7-5.6-13.8-9-20.4-3.4-6.6-7.2-12.6-11.4-18.1-4.2-5.5-8.7-9.9-13.4-13.4v62.9c0,9.7.8,16.8,2.5,21.2,1.6,4.4,4.6,7.3,8.7,8.7v.8h-45.8v-.8ZM355.9,131.7c5.9,0,10.4-1.7,13.4-5.2,3-3.5,4.5-7.5,4.5-12s-2.6-11.4-7.7-15.6c-5.1-4.2-11.7-6.2-19.9-6.2h-17.2v5.2c0,4.9.7,9.4,2.2,13.5,1.5,4.2,3.5,7.8,6,10.8,2.5,3,5.4,5.4,8.6,7,3.2,1.6,6.5,2.5,10,2.5Z"/>
        <path class="cls-2" d="M409.5,225.8c4.2-1.4,7.1-4.3,8.7-8.7,1.6-4.4,2.5-11.5,2.5-21.2v-86.8c0-9.7-.8-16.8-2.5-21.2-1.6-4.4-4.6-7.3-8.7-8.7v-.8h81.1c1.9,0,3.9-.1,6.1-.4,2.2-.3,3.7-.8,4.5-1.7l-13.8,28.1-.8-.3c.9-7.3-4.2-10.9-15.1-10.9h-27.6v39h.5c1.9-3.5,4.4-6.2,7.4-8.3,3-2.1,6.5-3.1,10.5-3.1s4.7.3,6.9.9c2.2.6,4.3,1.3,6.4,2.1s4.2,1.5,6.4,2.2c2.2.7,4.3,1,6.4,1,4.3,0,7.5-1.6,9.6-4.9l.8.3c-.5,2.4-1.5,4.9-2.9,7.4-1.4,2.5-3,4.8-4.9,6.8-1.9,2-4,3.6-6.4,4.9-2.3,1.3-4.9,2-7.7,2s-4.4-.4-6.5-1.2c-2.1-.8-4.2-1.6-6.2-2.5-2.1-.9-4.2-1.7-6.4-2.5-2.2-.8-4.5-1.2-6.9-1.2s-5.1,1-7,2.9v72h26.3c7.3,0,13.8-1.8,19.6-5.5,5.8-3.6,9.9-8.5,12.4-14.6l1,.3-7,38.2c-.5-.9-1.5-1.6-3-2.1-1.5-.5-3-.8-4.6-.8h-79.3v-.8Z"/>
      </g>
      <g class="cls-1">
        <path class="cls-2" d="M501.2,225.8c3.3-1.2,6-3.6,8.2-7.1,2.2-3.6,4.4-9.8,6.6-18.6l23.4-89.7c2.6-9.9,3.8-17.2,3.5-22.1-.3-4.9-1.9-7.9-4.8-9.1v-.8h38l32.8,121.7c2.1,8.3,4.2,14.3,6.4,18.1,2.2,3.7,5,6.3,8.5,7.7v.8h-45v-.8c3.6-1.4,5.9-4.4,6.8-9,.9-4.6,0-11.6-2.3-20.9l-1.6-5.7h-44.2l-1.3,5.7c-2.3,9.4-3,16.3-2.3,20.8.7,4.5,2.9,7.5,6.8,9.1v.8h-39.3v-.8ZM577.7,174.6l-19.2-70.5-17.2,70.5h36.4Z"/>
      </g>
      <g class="cls-1">
        <path class="cls-2" d="M637.5,225.8c4.2-1.4,7.1-4.3,8.7-8.7,1.6-4.4,2.5-11.5,2.5-21.2v-101.9h-9.4c-5.7,0-10.9,1.9-15.5,5.6-4.6,3.7-7.8,8.8-9.8,15.2l-1-.3,4.7-38.2c.7.7,2,1.2,4,1.6,2,.3,4.2.5,6.6.5h63.7c2.4,0,4.6-.2,6.6-.5,2-.3,3.3-.9,4-1.6l4.7,38.2-1,.3c-1.9-6.4-5.2-11.5-9.8-15.2-4.6-3.7-9.8-5.6-15.5-5.6h-9.1v101.9c0,9.7.8,16.8,2.5,21.2,1.6,4.4,4.5,7.3,8.7,8.7v.8h-45.8v-.8Z"/>
        <path class="cls-2" d="M714.7,225.8c4.2-1.4,7.1-4.3,8.7-8.7,1.6-4.4,2.5-11.5,2.5-21.2v-86.8c0-9.7-.8-16.8-2.5-21.2-1.6-4.4-4.6-7.3-8.7-8.7v-.8h45.8v.8c-4.2,1.4-7.1,4.3-8.7,8.7-1.6,4.4-2.5,11.5-2.5,21.2v86.8c0,9.7.8,16.8,2.5,21.2,1.6,4.4,4.5,7.3,8.7,8.7v.8h-45.8v-.8Z"/>
        <path class="cls-2" d="M775.8,104.9c-1-4.3-2.1-8-3.1-11.1-1-3-2.2-5.5-3.4-7.5-1.2-2-2.5-3.6-3.8-4.7-1.3-1.1-2.8-2-4.5-2.5v-.8h45.2v.8c-3.8,1.4-6.1,4.4-6.8,9-.7,4.6,0,11.6,2.3,20.9l20.8,88.4,20.8-88.4c2.3-9.4,3-16.3,2.3-20.9-.7-4.6-2.9-7.6-6.8-9v-.8h39v.8c-3.3,1.2-6,3.6-8.2,7.3-2.2,3.6-4.4,9.8-6.6,18.5l-30.2,121.7h-27l-30.2-121.7Z"/>
        <path class="cls-2" d="M878.5,225.8c4.2-1.4,7.1-4.3,8.7-8.7,1.6-4.4,2.5-11.5,2.5-21.2v-86.8c0-9.7-.8-16.8-2.5-21.2-1.6-4.4-4.5-7.3-8.7-8.7v-.8h81.1c1.9,0,3.9-.1,6.1-.4,2.2-.3,3.7-.8,4.5-1.7l-13.8,28.1-.8-.3c.9-7.3-4.2-10.9-15.1-10.9h-27.6v39h.5c1.9-3.5,4.4-6.2,7.4-8.3,3-2.1,6.5-3.1,10.5-3.1s4.7.3,6.9.9c2.2.6,4.3,1.3,6.4,2.1s4.2,1.5,6.4,2.2c2.2.7,4.3,1,6.4,1,4.3,0,7.5-1.6,9.6-4.9l.8.3c-.5,2.4-1.5,4.9-2.9,7.4-1.4,2.5-3,4.8-4.9,6.8-1.9,2-4,3.6-6.4,4.9-2.3,1.3-4.9,2-7.7,2s-4.4-.4-6.5-1.2c-2.1-.8-4.2-1.6-6.2-2.5-2.1-.9-4.2-1.7-6.4-2.5-2.2-.8-4.5-1.2-6.9-1.2s-5.1,1-7,2.9v72h26.3c7.3,0,13.8-1.8,19.6-5.5,5.8-3.6,9.9-8.5,12.4-14.6l1,.3-7,38.2c-.5-.9-1.5-1.6-3-2.1-1.5-.5-3-.8-4.6-.8h-79.3v-.8Z"/>
      </g>
    </g>
  </g>
</svg>